<?xml version="1.0" standalone="no"?>
<!DOCTYPE svg PUBLIC "-//W3C//DTD SVG 20010904//EN"
 "http://www.w3.org/TR/2001/REC-SVG-20010904/DTD/svg10.dtd">
<svg version="1.0" xmlns="http://www.w3.org/2000/svg"
 width="1366.000000pt" height="650.000000pt" viewBox="0 0 1366.000000 650.000000"
 preserveAspectRatio="xMidYMid meet">

<g transform="translate(0.000000,650.000000) scale(0.100000,-0.100000)"
fill="#000000" stroke="none">
<path d="M0 3200 l0 -1550 1980 0 1980 0 0 1550 0 1550 -1980 0 -1980 0 0
-1550z m1307 1171 c158 -30 330 -84 456 -143 l107 -51 0 -973 0 -973 -60 24
c-232 91 -471 130 -790 129 -200 0 -318 -9 -474 -37 -8 -1 -12 286 -14 974
l-2 977 24 15 c38 25 142 57 235 72 122 20 373 13 518 -14z m1875 14 c101 -15
204 -45 244 -72 l24 -15 -2 -977 c-2 -688 -6 -975 -14 -974 -240 43 -615 52
-824 20 -145 -22 -326 -67 -424 -105 l-76 -30 0 973 0 972 108 51 c294 139
674 201 964 157z m-2860 -324 l33 -29 3 -961 2 -961 23 5 c51 11 305 35 483
46 299 18 585 -8 863 -77 57 -14 112 -31 122 -37 41 -26 47 -89 11 -129 -14
-17 -67 -18 -839 -18 -810 0 -823 0 -843 20 -20 20 -20 33 -20 1063 0 941 2
1045 16 1065 34 49 99 55 146 13z m3475 -6 l23 -26 0 -1045 c0 -1031 0 -1044
-20 -1064 -20 -20 -33 -20 -844 -20 l-825 0 -20 26 c-24 30 -26 52 -10 87 15
33 36 43 154 72 264 67 563 93 859 76 178 -11 432 -35 483 -46 l23 -5 2 961 3
961 34 30 c29 26 39 30 75 25 27 -4 49 -15 63 -32z"/>
<path d="M6193 3990 c-24 -10 -37 -39 -27 -64 16 -41 95 -39 109 3 6 21 -9 61
-25 61 -4 0 -14 2 -22 4 -7 3 -23 1 -35 -4z"/>
<path d="M7999 3981 l-24 -19 0 -287 0 -287 24 -19 c13 -10 29 -19 36 -19 7 0
23 9 36 19 l24 19 0 287 0 287 -24 19 c-13 10 -29 19 -36 19 -7 0 -23 -9 -36
-19z"/>
<path d="M11364 3986 c-16 -12 -19 -29 -22 -120 l-4 -105 -39 28 c-101 74
-240 32 -286 -87 -55 -144 18 -323 142 -346 48 -9 109 9 149 45 l34 30 7 -31
c14 -64 88 -62 100 2 3 18 5 154 3 301 -3 252 -4 269 -22 283 -25 18 -37 18
-62 0z m-76 -271 c62 -52 67 -176 10 -240 -25 -29 -37 -35 -72 -35 -77 0 -116
50 -116 150 0 98 39 150 111 150 25 0 47 -8 67 -25z"/>
<path d="M4732 3980 c-39 -17 -43 -49 -40 -328 3 -264 3 -264 27 -283 29 -24
43 -24 72 0 22 18 24 28 27 129 l4 109 99 6 c115 6 180 32 215 84 28 42 37
104 23 155 -28 107 -74 130 -264 135 -78 2 -150 -1 -163 -7z m267 -95 c34 -17
41 -33 41 -90 0 -36 -5 -48 -31 -69 -27 -23 -39 -26 -110 -26 l-79 0 0 100 0
100 75 0 c47 0 87 -6 104 -15z"/>
<path d="M6969 3961 c-19 -15 -24 -30 -27 -83 -4 -60 -6 -65 -33 -75 -42 -16
-41 -60 1 -76 l30 -11 0 -116 c1 -129 11 -195 32 -217 55 -55 233 -26 214 35
-6 18 -16 22 -64 24 l-57 3 -3 136 -3 136 43 9 c35 7 44 14 46 33 5 30 -20 51
-59 51 -26 0 -27 2 -31 66 -3 55 -8 70 -27 85 -13 11 -27 19 -31 19 -4 0 -18
-8 -31 -19z"/>
<path d="M8819 3961 c-19 -15 -24 -30 -27 -83 -4 -60 -6 -65 -33 -75 -42 -16
-41 -60 1 -76 l30 -11 0 -116 c1 -129 11 -195 32 -217 55 -55 233 -26 214 35
-6 18 -16 22 -64 24 l-57 3 -3 136 -3 136 43 9 c35 7 44 14 46 33 5 30 -20 51
-59 51 -26 0 -27 2 -31 66 -3 55 -8 70 -27 85 -13 11 -27 19 -31 19 -4 0 -18
-8 -31 -19z"/>
<path d="M5308 3823 c-30 -8 -38 -61 -38 -245 0 -177 0 -179 25 -203 29 -30
36 -31 66 -6 23 18 24 28 30 158 7 191 22 214 125 198 52 -7 74 5 74 42 0 19
-9 28 -45 44 -57 25 -95 19 -129 -22 -29 -34 -36 -36 -36 -10 0 18 -36 53 -50
50 -3 -1 -13 -3 -22 -6z"/>
<path d="M5767 3816 c-88 -24 -138 -79 -157 -172 -33 -159 67 -287 225 -287
158 0 258 128 225 287 -28 135 -156 210 -293 172z m131 -92 c35 -24 52 -68 52
-134 0 -99 -39 -150 -115 -150 -76 0 -115 51 -115 150 0 99 39 150 115 150 22
0 51 -7 63 -16z"/>
<path d="M6185 3806 l-25 -25 0 -235 c0 -129 -3 -241 -6 -250 -4 -11 -19 -16
-49 -16 -48 0 -68 -17 -63 -52 4 -31 67 -52 127 -43 67 10 97 46 106 126 10
94 2 486 -10 497 -25 24 -55 23 -80 -2z"/>
<path d="M6544 3819 c-186 -44 -218 -351 -45 -438 107 -54 264 -21 305 64 16
32 6 65 -20 65 -8 0 -37 -18 -65 -40 -44 -34 -58 -40 -100 -40 -61 0 -107 36
-115 91 l-6 37 144 3 c167 5 178 9 178 74 0 127 -135 217 -276 184z m137 -98
c16 -16 29 -36 29 -44 0 -9 3 -22 6 -31 5 -14 -8 -16 -105 -16 -109 0 -111 0
-111 23 0 24 23 64 50 84 8 7 34 13 58 13 35 0 49 -6 73 -29z"/>
<path d="M7367 3816 c-88 -24 -138 -79 -157 -172 -33 -159 67 -287 225 -287
158 0 258 128 225 287 -28 135 -156 210 -293 172z m131 -92 c35 -24 52 -68 52
-134 0 -99 -39 -150 -115 -150 -76 0 -115 51 -115 150 0 99 39 150 115 150 22
0 51 -7 63 -16z"/>
<path d="M8264 3816 c-18 -13 -19 -28 -19 -221 0 -205 0 -207 24 -226 29 -24
33 -24 62 0 23 18 24 27 29 163 6 179 20 208 102 208 69 0 72 -10 78 -190 5
-155 6 -163 29 -181 29 -24 33 -24 62 0 22 18 24 28 27 132 2 62 1 142 -3 178
-6 57 -12 70 -44 102 -62 61 -154 61 -226 -2 -33 -29 -35 -30 -35 -10 0 23
-33 61 -53 61 -7 0 -22 -6 -33 -14z"/>
<path d="M9224 3819 c-186 -44 -218 -351 -45 -438 107 -54 264 -21 305 64 16
32 6 65 -20 65 -8 0 -37 -18 -65 -40 -44 -34 -58 -40 -100 -40 -61 0 -107 36
-115 91 l-6 37 144 3 c167 5 178 9 178 74 0 127 -135 217 -276 184z m137 -98
c16 -16 29 -36 29 -44 0 -9 3 -22 6 -31 5 -14 -8 -16 -105 -16 -109 0 -111 0
-111 23 0 24 23 64 50 84 8 7 34 13 58 13 35 0 49 -6 73 -29z"/>
<path d="M9697 3818 c-44 -12 -94 -58 -115 -108 -21 -50 -21 -165 1 -222 48
-124 194 -163 284 -76 l35 33 -4 -69 c-4 -60 -8 -72 -32 -92 -21 -19 -39 -24
-81 -24 -48 0 -58 4 -100 40 -51 44 -66 48 -89 24 -36 -36 -3 -92 72 -121 55
-21 177 -23 233 -4 41 13 82 53 100 96 14 34 25 399 14 471 -5 34 -12 48 -30
56 -33 15 -75 -12 -75 -47 0 -14 -4 -25 -10 -25 -5 0 -10 4 -10 10 0 17 -74
58 -115 63 -22 3 -57 1 -78 -5z m151 -94 c34 -24 52 -68 52 -129 0 -94 -40
-145 -115 -145 -33 0 -47 6 -71 31 -27 29 -29 35 -29 114 0 79 2 85 29 114 24
25 38 31 71 31 22 0 51 -7 63 -16z"/>
<path d="M10168 3823 c-30 -8 -38 -61 -38 -245 0 -177 0 -179 25 -203 29 -30
36 -31 66 -6 23 18 24 28 30 158 7 191 22 214 125 198 52 -7 74 5 74 42 0 19
-9 28 -45 44 -57 25 -95 19 -129 -22 -29 -34 -36 -36 -36 -10 0 18 -36 53 -50
50 -3 -1 -13 -3 -22 -6z"/>
<path d="M10633 3820 c-85 -18 -133 -58 -133 -112 0 -21 7 -32 25 -40 24 -11
29 -8 69 35 42 46 44 47 104 47 52 0 63 -3 76 -22 9 -12 16 -34 16 -49 0 -26
-4 -27 -107 -49 -127 -26 -166 -42 -189 -78 -22 -34 -22 -103 -1 -136 45 -68
157 -80 252 -27 54 31 58 31 71 14 7 -10 14 -21 14 -24 0 -15 52 -29 70 -19
22 12 35 45 23 62 -4 7 -10 78 -13 158 -7 163 -18 196 -75 223 -40 19 -148 28
-202 17z m157 -276 c0 -39 -5 -51 -34 -80 -29 -29 -41 -34 -82 -34 -58 0 -84
20 -84 65 0 43 16 54 103 75 102 25 97 26 97 -26z"/>
<path d="M11707 3816 c-88 -24 -138 -79 -157 -172 -33 -159 67 -287 225 -287
158 0 258 128 225 287 -28 135 -156 210 -293 172z m131 -92 c35 -24 52 -68 52
-134 0 -99 -39 -150 -115 -150 -76 0 -115 51 -115 150 0 99 39 150 115 150 22
0 51 -7 63 -16z"/>
<path d="M12138 3823 c-30 -8 -38 -61 -38 -245 0 -177 0 -179 25 -203 29 -30
36 -31 66 -6 23 18 24 28 30 158 7 191 22 214 125 198 52 -7 74 5 74 42 0 19
-9 28 -45 44 -57 25 -95 19 -129 -22 -29 -34 -36 -36 -36 -10 0 18 -36 53 -50
50 -3 -1 -13 -3 -22 -6z"/>
<path d="M6873 2930 c-24 -10 -37 -39 -27 -64 16 -41 95 -39 109 3 6 21 -9 61
-25 61 -4 0 -14 2 -22 4 -7 3 -23 1 -35 -4z"/>
<path d="M7104 2926 c-18 -14 -19 -31 -22 -283 -2 -147 0 -283 3 -300 12 -65
86 -67 100 -3 l7 32 32 -30 c53 -51 136 -62 208 -26 92 47 132 217 79 339 -49
112 -187 145 -286 69 l-33 -25 -4 106 c-3 92 -6 109 -22 121 -25 18 -37 18
-62 0z m264 -262 c35 -24 52 -68 52 -134 0 -95 -39 -150 -107 -150 -50 0 -81
19 -103 65 -51 105 3 235 99 235 20 0 47 -7 59 -16z"/>
<path d="M7659 2933 c-34 -9 -39 -48 -39 -324 l0 -270 25 -24 c13 -14 29 -25
35 -25 6 0 22 11 35 25 l25 24 0 276 0 276 -25 24 c-24 25 -27 26 -56 18z"/>
<path d="M7893 2930 c-24 -10 -37 -39 -27 -64 16 -41 95 -39 109 3 6 21 -9 61
-25 61 -4 0 -14 2 -22 4 -7 3 -23 1 -35 -4z"/>
<path d="M10949 2930 c-57 -10 -116 -40 -150 -77 -67 -71 -98 -192 -79 -302
30 -171 133 -256 311 -254 129 1 215 55 264 165 24 53 28 77 29 148 0 182 -81
291 -238 319 -66 12 -71 12 -137 1z m149 -104 c70 -36 102 -103 102 -211 0
-146 -63 -225 -180 -225 -59 0 -97 17 -133 60 -65 76 -64 261 1 334 48 54 148
74 210 42z"/>
<path d="M11999 2933 c-34 -9 -39 -48 -39 -324 l0 -270 25 -24 c13 -14 29 -25
35 -25 6 0 22 11 35 25 l25 24 0 276 0 276 -25 24 c-24 25 -27 26 -56 18z"/>
<path d="M12233 2930 c-24 -10 -37 -39 -27 -64 16 -41 95 -39 109 3 6 21 -9
61 -25 61 -4 0 -14 2 -22 4 -7 3 -23 1 -35 -4z"/>
<path d="M6262 2920 c-39 -17 -43 -50 -40 -322 3 -231 5 -259 21 -275 15 -16
37 -18 170 -18 185 0 217 6 266 51 89 80 70 208 -38 264 l-23 12 36 29 c80 67
63 199 -32 245 -29 14 -68 18 -187 21 -82 2 -160 -1 -173 -7z m288 -93 c48
-24 52 -96 8 -137 -19 -17 -35 -20 -115 -20 l-93 0 0 85 0 85 88 0 c50 0 98
-6 112 -13z m19 -262 c33 -17 41 -33 41 -83 -1 -72 -36 -92 -164 -92 l-96 0 0
95 0 95 95 0 c65 0 105 -5 124 -15z"/>
<path d="M8679 2901 c-19 -15 -24 -30 -27 -83 -4 -60 -6 -65 -33 -75 -42 -16
-41 -60 1 -76 l30 -11 0 -116 c1 -129 11 -195 32 -217 55 -55 233 -26 214 35
-6 18 -16 22 -64 24 l-57 3 -3 136 -3 136 43 9 c35 7 44 14 46 33 5 30 -20 51
-59 51 -26 0 -27 2 -31 66 -3 55 -8 70 -27 85 -13 11 -27 19 -31 19 -4 0 -18
-8 -31 -19z"/>
<path d="M6878 2763 c-33 -9 -39 -54 -36 -248 3 -183 4 -187 27 -206 29 -24
33 -24 62 0 24 19 24 23 27 215 l3 196 -25 25 c-25 25 -28 26 -58 18z"/>
<path d="M7898 2763 c-33 -9 -39 -54 -36 -248 3 -183 4 -187 27 -206 29 -24
33 -24 62 0 24 19 24 23 27 215 l3 196 -25 25 c-25 25 -28 26 -58 18z"/>
<path d="M8237 2756 c-88 -24 -138 -79 -157 -172 -33 -159 67 -287 225 -287
158 0 258 128 225 287 -28 135 -156 210 -293 172z m131 -92 c35 -24 52 -68 52
-134 0 -99 -39 -150 -115 -150 -76 0 -115 51 -115 150 0 99 39 150 115 150 22
0 51 -7 63 -16z"/>
<path d="M9084 2759 c-186 -44 -218 -351 -45 -438 107 -54 264 -21 305 64 16
32 6 65 -20 65 -8 0 -37 -18 -65 -40 -44 -34 -58 -40 -100 -40 -61 0 -107 36
-115 91 l-6 37 144 3 c167 5 178 9 178 74 0 127 -135 217 -276 184z m137 -98
c16 -16 29 -36 29 -44 0 -9 3 -22 6 -31 5 -14 -8 -16 -105 -16 -109 0 -111 0
-111 23 0 24 23 64 50 84 8 7 34 13 58 13 35 0 49 -6 73 -29z"/>
<path d="M9608 2757 c-90 -26 -140 -81 -158 -176 -26 -136 42 -255 161 -280
94 -21 190 7 243 69 41 49 31 110 -17 110 -11 0 -40 -22 -66 -50 -43 -46 -51
-50 -92 -50 -80 0 -119 49 -119 150 0 101 39 150 119 150 40 0 49 -5 87 -45
46 -50 86 -60 104 -25 12 23 -6 75 -36 102 -50 44 -153 65 -226 45z"/>
<path d="M10113 2760 c-85 -18 -133 -58 -133 -112 0 -21 7 -32 25 -40 24 -11
29 -8 69 35 42 46 44 47 104 47 52 0 63 -3 76 -22 9 -12 16 -34 16 -49 0 -26
-4 -27 -107 -49 -127 -26 -166 -42 -189 -78 -22 -34 -22 -103 -1 -136 45 -68
157 -80 252 -27 54 31 58 31 71 14 7 -10 14 -21 14 -24 0 -15 52 -29 70 -19
22 12 35 45 23 62 -4 7 -10 78 -13 158 -7 163 -18 196 -75 223 -40 19 -148 28
-202 17z m157 -276 c0 -39 -5 -51 -34 -80 -29 -29 -41 -34 -82 -34 -58 0 -84
20 -84 65 0 43 16 54 103 75 102 25 97 26 97 -26z"/>
<path d="M11454 2756 c-18 -13 -19 -28 -19 -221 0 -205 0 -207 24 -226 29 -24
33 -24 62 0 23 18 24 27 29 163 6 179 20 208 102 208 69 0 72 -10 78 -190 5
-155 6 -163 29 -181 29 -24 33 -24 62 0 22 18 24 28 27 132 2 62 1 142 -3 178
-6 57 -12 70 -44 102 -62 61 -154 61 -226 -2 -33 -29 -35 -30 -35 -10 0 23
-33 61 -53 61 -7 0 -22 -6 -33 -14z"/>
<path d="M12238 2763 c-33 -9 -39 -54 -36 -248 3 -183 4 -187 27 -206 29 -24
33 -24 62 0 24 19 24 23 27 215 l3 196 -25 25 c-25 25 -28 26 -58 18z"/>
<path d="M12464 2756 c-18 -13 -19 -28 -19 -221 0 -205 0 -207 24 -226 29 -24
33 -24 62 0 23 18 24 27 29 163 6 179 20 208 102 208 69 0 72 -10 78 -190 5
-155 6 -163 29 -181 29 -24 33 -24 62 0 22 18 24 28 27 132 2 62 1 142 -3 178
-6 57 -12 70 -44 102 -62 61 -154 61 -226 -2 -33 -29 -35 -30 -35 -10 0 23
-33 61 -53 61 -7 0 -22 -6 -33 -14z"/>
<path d="M13114 2759 c-186 -44 -218 -351 -45 -438 107 -54 264 -21 305 64 16
32 6 65 -20 65 -8 0 -37 -18 -65 -40 -44 -34 -58 -40 -100 -40 -61 0 -107 36
-115 91 l-6 37 144 3 c167 5 178 9 178 74 0 127 -135 217 -276 184z m137 -98
c16 -16 29 -36 29 -44 0 -9 3 -22 6 -31 5 -14 -8 -16 -105 -16 -109 0 -111 0
-111 23 0 24 23 64 50 84 8 7 34 13 58 13 35 0 49 -6 73 -29z"/>
</g>
</svg>
