<?xml version="1.0" standalone="no"?>
<!DOCTYPE svg PUBLIC "-//W3C//DTD SVG 20010904//EN"
 "http://www.w3.org/TR/2001/REC-SVG-20010904/DTD/svg10.dtd">
<svg version="1.0" xmlns="http://www.w3.org/2000/svg"
 width="1623.000000pt" height="433.000000pt" viewBox="0 0 1623.000000 433.000000"
 preserveAspectRatio="xMidYMid meet">

<g transform="translate(0.000000,433.000000) scale(0.100000,-0.100000)"
fill="#000000" stroke="none">
<path d="M10044 3880 c-93 -13 -142 -28 -219 -68 -141 -74 -251 -218 -296
-389 -30 -109 -30 -306 -1 -415 87 -324 329 -493 682 -475 70 4 144 14 189 27
94 26 222 87 284 135 l47 36 0 264 0 265 -285 0 -285 0 0 -110 0 -110 150 0
150 0 0 -83 c0 -95 -2 -98 -85 -140 -242 -121 -482 -47 -566 174 -31 80 -45
225 -32 317 18 118 48 188 107 248 167 167 490 120 556 -81 8 -25 15 -31 33
-29 98 14 227 38 237 44 10 6 10 16 0 46 -54 168 -195 296 -365 332 -74 16
-231 22 -301 12z"/>
<path d="M260 3210 l0 -660 363 0 c199 0 393 5 432 10 139 21 231 87 288 208
29 60 32 77 32 157 0 78 -4 98 -27 145 -33 66 -75 109 -146 148 l-53 29 38 29
c50 38 68 59 101 119 23 43 27 61 27 135 -1 101 -24 160 -93 228 -97 97 -182
112 -669 112 l-293 0 0 -660z m712 418 c100 -45 105 -201 9 -260 -34 -22 -48
-23 -243 -26 l-208 -3 0 156 0 157 203 -4 c160 -3 210 -7 239 -20z m-38 -518
c127 -19 171 -62 171 -170 0 -78 -17 -110 -76 -145 -31 -18 -55 -20 -266 -23
l-233 -3 0 175 0 176 168 0 c92 0 198 -5 236 -10z"/>
<path d="M1590 3760 l0 -110 125 0 125 0 0 110 0 110 -125 0 -125 0 0 -110z"/>
<path d="M2100 3210 l0 -660 115 0 115 0 0 67 0 67 48 -46 c26 -26 72 -59 102
-75 49 -25 65 -28 150 -28 113 0 160 19 246 97 96 88 143 224 144 409 0 109
-26 228 -64 293 -30 52 -110 128 -163 155 -126 64 -291 43 -397 -49 -18 -17
-36 -30 -40 -30 -3 0 -6 104 -6 230 l0 230 -125 0 -125 0 0 -660z m535 111
c93 -42 135 -132 135 -290 0 -201 -71 -311 -201 -311 -140 0 -229 145 -216
350 6 97 23 150 60 196 57 69 144 91 222 55z"/>
<path d="M3220 3210 l0 -660 125 0 125 0 0 660 0 660 -125 0 -125 0 0 -660z"/>
<path d="M3730 3760 l0 -110 125 0 125 0 0 110 0 110 -125 0 -125 0 0 -110z"/>
<path d="M13791 3838 c-54 -28 -80 -73 -88 -152 l-6 -56 61 0 c59 0 61 1 67
30 13 61 56 62 205 4 101 -39 159 -43 210 -15 48 25 80 89 80 158 l0 53 -59 0
c-53 0 -60 -2 -67 -22 -20 -68 -66 -74 -189 -23 -115 48 -158 53 -214 23z"/>
<path d="M5498 3758 l-118 -71 0 -88 0 -89 -60 0 -60 0 0 -95 0 -95 60 0 60 0
1 -247 c0 -395 12 -451 104 -508 45 -28 55 -30 149 -30 57 0 122 6 150 14 l48
14 -6 76 c-10 106 -15 124 -35 115 -9 -4 -39 -9 -66 -11 -42 -4 -53 -2 -70 17
-19 21 -20 38 -23 291 l-3 269 91 0 90 0 0 95 0 95 -90 0 -90 0 0 160 c0 88
-3 160 -7 160 -5 -1 -61 -33 -125 -72z"/>
<path d="M13158 3758 l-118 -71 0 -88 0 -89 -60 0 -60 0 0 -95 0 -95 60 0 60
0 1 -247 c0 -395 12 -451 104 -508 45 -28 55 -30 149 -30 57 0 122 6 150 14
l48 14 -6 76 c-10 106 -15 124 -35 115 -9 -4 -39 -9 -66 -11 -42 -4 -53 -2
-70 17 -19 21 -20 38 -23 291 l-3 269 91 0 90 0 0 95 0 95 -90 0 -90 0 0 160
c0 88 -3 160 -7 160 -5 -1 -61 -33 -125 -72z"/>
<path d="M4576 3519 c-68 -10 -170 -55 -226 -99 -101 -80 -165 -233 -163 -390
1 -113 14 -173 55 -257 109 -222 437 -313 671 -185 107 58 210 198 236 320 14
68 14 176 0 244 -39 187 -205 341 -394 368 -80 11 -97 11 -179 -1z m148 -191
c59 -18 127 -90 149 -157 22 -70 23 -211 0 -280 -19 -60 -78 -131 -127 -155
-111 -52 -248 17 -293 149 -24 70 -24 222 1 294 42 122 154 183 270 149z"/>
<path d="M6252 3519 c-76 -13 -160 -59 -218 -121 -80 -84 -108 -148 -125 -290
-22 -179 21 -344 117 -447 91 -99 202 -137 370 -129 75 4 104 11 156 35 102
48 169 120 204 219 l11 32 -121 14 -121 14 -19 -38 c-30 -62 -69 -83 -153 -83
-65 0 -75 3 -110 31 -43 36 -79 100 -88 162 l-7 42 323 0 322 0 -6 98 c-7 120
-35 212 -87 288 -65 97 -155 153 -280 173 -74 12 -94 12 -168 0z m202 -216
c46 -33 77 -87 84 -149 l5 -44 -192 0 -191 0 0 35 c0 153 171 244 294 158z"/>
<path d="M7290 3519 c-167 -28 -283 -137 -336 -314 -26 -88 -24 -277 5 -366
42 -133 135 -235 254 -281 64 -25 219 -35 297 -19 155 32 276 145 308 288 l9
41 -121 14 -121 13 -18 -49 c-30 -86 -84 -126 -171 -126 -56 0 -93 14 -129 48
-64 60 -94 176 -84 321 11 147 70 231 174 247 87 13 182 -42 198 -115 5 -23
11 -29 28 -26 12 2 58 6 102 10 115 9 127 13 119 39 -14 51 -59 125 -102 169
-58 59 -125 92 -219 106 -82 13 -115 12 -193 0z"/>
<path d="M8263 3519 c-145 -21 -229 -90 -277 -225 l-14 -41 66 -11 c167 -28
158 -29 181 17 35 67 92 91 186 77 67 -10 96 -40 103 -104 4 -51 4 -52 -29
-66 -19 -8 -88 -26 -154 -40 -242 -54 -304 -86 -351 -182 -78 -160 2 -349 168
-399 115 -34 236 -13 341 59 l64 44 17 -49 18 -49 124 0 124 0 -19 38 c-39 77
-43 112 -50 432 -6 297 -8 317 -28 356 -44 83 -121 127 -253 143 -96 12 -129
12 -217 0z m228 -703 c-38 -87 -164 -133 -237 -88 -62 39 -81 135 -37 184 27
30 48 39 173 72 l115 31 3 -77 c2 -61 -2 -88 -17 -122z"/>
<path d="M11262 3519 c-76 -13 -160 -59 -218 -121 -80 -84 -108 -148 -125
-290 -22 -179 21 -344 117 -447 91 -99 202 -137 370 -129 75 4 104 11 156 35
102 48 169 120 204 219 l11 32 -121 14 -121 14 -19 -38 c-30 -62 -69 -83 -153
-83 -65 0 -75 3 -110 31 -43 36 -79 100 -88 162 l-7 42 323 0 322 0 -6 98 c-7
120 -35 212 -87 288 -65 97 -155 153 -280 173 -74 12 -94 12 -168 0z m202
-216 c46 -33 77 -87 84 -149 l5 -44 -192 0 -191 0 0 35 c0 153 171 244 294
158z"/>
<path d="M12226 3519 c-126 -17 -211 -69 -261 -161 -38 -69 -41 -170 -8 -234
54 -103 156 -153 442 -220 121 -28 151 -46 151 -90 0 -67 -63 -104 -180 -104
-111 0 -184 42 -217 126 -8 19 -11 19 -130 6 l-122 -14 17 -43 c41 -105 127
-187 237 -226 74 -26 252 -36 339 -20 122 23 232 96 278 185 26 51 34 143 18
200 -30 110 -120 165 -368 226 -87 22 -174 46 -193 54 -50 21 -73 50 -65 81
10 39 64 59 166 59 103 1 150 -18 183 -75 22 -38 22 -38 72 -33 101 11 177 23
182 28 3 2 -5 25 -16 51 -44 100 -117 163 -222 190 -71 19 -219 26 -303 14z"/>
<path d="M13883 3519 c-145 -21 -229 -90 -277 -225 l-14 -41 66 -11 c167 -28
158 -29 181 17 35 67 92 91 186 77 67 -10 96 -40 103 -104 4 -51 4 -52 -29
-66 -19 -8 -88 -26 -154 -40 -242 -54 -304 -86 -351 -182 -78 -160 2 -349 168
-399 115 -34 236 -13 341 59 l64 44 17 -49 18 -49 124 0 124 0 -19 38 c-39 77
-43 112 -50 432 -6 297 -8 317 -28 356 -44 83 -121 127 -253 143 -96 12 -129
12 -217 0z m228 -703 c-38 -87 -164 -133 -237 -88 -62 39 -81 135 -37 184 27
30 48 39 173 72 l115 31 3 -77 c2 -61 -2 -88 -17 -122z"/>
<path d="M14986 3519 c-68 -10 -170 -55 -226 -99 -101 -80 -165 -233 -163
-390 1 -113 14 -173 55 -257 109 -222 437 -313 671 -185 107 58 210 198 236
320 14 68 14 176 0 244 -39 187 -205 341 -394 368 -80 11 -97 11 -179 -1z
m148 -191 c59 -18 127 -90 149 -157 22 -70 23 -211 0 -280 -19 -60 -78 -131
-127 -155 -111 -52 -248 17 -293 149 -24 70 -24 222 1 294 42 122 154 183 270
149z"/>
<path d="M1590 3030 l0 -480 125 0 125 0 0 480 0 480 -125 0 -125 0 0 -480z"/>
<path d="M3730 3030 l0 -480 125 0 125 0 0 480 0 480 -125 0 -125 0 0 -480z"/>
<path d="M5627 1669 c-192 -26 -343 -130 -430 -297 -70 -134 -97 -300 -77
-480 20 -183 76 -308 187 -412 113 -106 259 -159 436 -160 312 0 533 162 613
451 14 49 18 102 19 229 0 184 -15 254 -78 375 -68 128 -224 246 -368 279 -86
20 -219 27 -302 15z m265 -249 c146 -55 218 -192 218 -420 0 -172 -39 -281
-130 -363 -125 -112 -324 -118 -452 -14 -141 115 -190 391 -108 611 36 96 123
173 229 203 62 17 173 10 243 -17z"/>
<path d="M7710 1000 l0 -660 125 0 125 0 0 660 0 660 -125 0 -125 0 0 -660z"/>
<path d="M8220 1550 l0 -110 125 0 125 0 0 110 0 110 -125 0 -125 0 0 -110z"/>
<path d="M7059 1310 c-61 -11 -133 -49 -191 -100 l-48 -42 0 66 0 66 -115 0
-115 0 0 -480 0 -480 124 0 124 0 5 308 c4 341 8 366 66 423 81 82 198 75 265
-15 20 -26 21 -42 24 -372 l3 -344 125 0 125 0 -3 383 c-3 374 -3 383 -26 428
-48 97 -135 152 -258 163 -33 2 -80 1 -105 -4z"/>
<path d="M9199 1310 c-61 -11 -133 -49 -191 -100 l-48 -42 0 66 0 66 -115 0
-115 0 0 -480 0 -480 124 0 124 0 5 308 c4 341 8 366 66 423 81 82 198 75 265
-15 20 -26 21 -42 24 -372 l3 -344 125 0 125 0 -3 383 c-3 374 -3 383 -26 428
-48 97 -135 152 -258 163 -33 2 -80 1 -105 -4z"/>
<path d="M10132 1309 c-76 -13 -160 -59 -218 -121 -80 -84 -108 -148 -125
-290 -22 -179 21 -344 117 -447 91 -99 202 -137 370 -129 75 4 104 11 156 35
102 48 169 120 204 219 l11 32 -121 14 -121 14 -19 -38 c-30 -62 -69 -83 -153
-83 -65 0 -75 3 -110 31 -43 36 -79 100 -88 162 l-7 42 323 0 322 0 -6 98 c-7
120 -35 212 -87 288 -65 97 -155 153 -280 173 -74 12 -94 12 -168 0z m202
-216 c46 -33 77 -87 84 -149 l5 -44 -192 0 -191 0 0 35 c0 153 171 244 294
158z"/>
<path d="M8220 820 l0 -480 125 0 125 0 0 480 0 480 -125 0 -125 0 0 -480z"/>
</g>
</svg>
